<svg width="20" height="20" viewBox="0 0 20 20" fill="none" xmlns="http://www.w3.org/2000/svg">
<path d="M13.3334 3.33301H15C15.4421 3.33301 15.866 3.5086 16.1786 3.82116C16.4911 4.13372 16.6667 4.55765 16.6667 4.99967V16.6663C16.6667 17.1084 16.4911 17.5323 16.1786 17.8449C15.866 18.1574 15.4421 18.333 15 18.333H5.00004C4.55801 18.333 4.13409 18.1574 3.82153 17.8449C3.50897 17.5323 3.33337 17.1084 3.33337 16.6663V4.99967C3.33337 4.55765 3.50897 4.13372 3.82153 3.82116C4.13409 3.5086 4.55801 3.33301 5.00004 3.33301H6.66671" stroke="#8A95B2" stroke-width="2" stroke-linecap="round" stroke-linejoin="round"/>
<path d="M12.5 1.66699H7.49996C7.03972 1.66699 6.66663 2.04009 6.66663 2.50033V4.16699C6.66663 4.62723 7.03972 5.00033 7.49996 5.00033H12.5C12.9602 5.00033 13.3333 4.62723 13.3333 4.16699V2.50033C13.3333 2.04009 12.9602 1.66699 12.5 1.66699Z" stroke="#8A95B2" stroke-width="2" stroke-linecap="round" stroke-linejoin="round"/>
</svg>
