<svg width="36" height="36" viewBox="0 0 36 36" fill="none" xmlns="http://www.w3.org/2000/svg">
<path opacity="0.7" fill-rule="evenodd" clip-rule="evenodd" d="M29.3166 31.9984C26.2249 34.501 22.2875 36 18 36C13.7125 36 9.77513 34.501 6.68338 31.9984C8.33117 27.3385 12.7757 24 18 24C23.2243 24 27.6688 27.3385 29.3166 31.9984ZM30.9007 30.5527C29.3359 26.8513 26.2246 23.963 22.3767 22.6977C24.5586 21.269 26 18.8028 26 16C26 11.5817 22.4183 8 18 8C13.5817 8 10 11.5817 10 16C10 18.8028 11.4414 21.269 13.6233 22.6977C9.77542 23.963 6.6641 26.8513 5.09927 30.5527C1.94361 27.3102 0 22.8821 0 18C0 8.05887 8.05887 0 18 0C27.9411 0 36 8.05887 36 18C36 22.8821 34.0564 27.3102 30.9007 30.5527ZM18 22C21.3137 22 24 19.3137 24 16C24 12.6863 21.3137 10 18 10C14.6863 10 12 12.6863 12 16C12 19.3137 14.6863 22 18 22Z" fill="url(#paint0_linear_415_9095)"/>
<defs>
<linearGradient id="paint0_linear_415_9095" x1="18" y1="0" x2="18" y2="36" gradientUnits="userSpaceOnUse">
<stop stop-color="#F5595C"/>
<stop offset="1" stop-color="#F94167"/>
</linearGradient>
</defs>
</svg>
