<svg width="21" height="20" viewBox="0 0 21 20" fill="none" xmlns="http://www.w3.org/2000/svg">
<path d="M17.1667 7.5H9.66667C8.74619 7.5 8 8.24619 8 9.16667V16.6667C8 17.5871 8.74619 18.3333 9.66667 18.3333H17.1667C18.0871 18.3333 18.8333 17.5871 18.8333 16.6667V9.16667C18.8333 8.24619 18.0871 7.5 17.1667 7.5Z" stroke="#51566E" stroke-width="2" stroke-linecap="round" stroke-linejoin="round"/>
<path d="M4.66669 12.5003H3.83335C3.39133 12.5003 2.9674 12.3247 2.65484 12.0122C2.34228 11.6996 2.16669 11.2757 2.16669 10.8337V3.33366C2.16669 2.89163 2.34228 2.46771 2.65484 2.15515C2.9674 1.84259 3.39133 1.66699 3.83335 1.66699H11.3334C11.7754 1.66699 12.1993 1.84259 12.5119 2.15515C12.8244 2.46771 13 2.89163 13 3.33366V4.16699" stroke="#51566E" stroke-width="2" stroke-linecap="round" stroke-linejoin="round"/>
</svg>
