<svg width="24" height="24" viewBox="0 0 24 24" fill="none" xmlns="http://www.w3.org/2000/svg">
<path d="M16.8164 1H7.19141C5.67246 1 4.44141 2.23105 4.44141 3.75V20.25C4.44141 21.7689 5.67246 23 7.19141 23H16.8164C18.3354 23 19.5664 21.7689 19.5664 20.25V3.75C19.5664 2.23105 18.3332 1 16.8164 1ZM12.0039 21.625C11.2412 21.625 10.6289 21.0127 10.6289 20.25C10.6289 19.4873 11.2412 18.875 12.0039 18.875C12.7666 18.875 13.3789 19.4873 13.3789 20.25C13.3789 21.0127 12.7687 21.625 12.0039 21.625ZM16.8164 3.75V17.5H7.19141V3.75H16.8164Z" fill="black"/>
</svg>
