<svg width="190" height="150" viewBox="0 0 190 150" fill="none" xmlns="http://www.w3.org/2000/svg">
<path d="M90.8507 140.498C127.131 140.498 156.542 111.087 156.542 74.8065C156.542 38.5262 127.131 9.11523 90.8507 9.11523C54.5704 9.11523 25.1594 38.5262 25.1594 74.8065C25.1594 111.087 54.5704 140.498 90.8507 140.498Z" fill="#F0F2FA"/>
<path d="M90.8507 140.859C54.4302 140.859 24.7982 111.234 24.7982 74.8062C24.7982 38.3785 54.423 8.75 90.8507 8.75C127.278 8.75 156.903 38.3748 156.903 74.8062C156.903 111.238 127.271 140.859 90.8507 140.859ZM90.8507 9.47256C54.8276 9.47256 25.5207 38.7795 25.5207 74.8062C25.5207 110.833 54.8276 140.136 90.8507 140.136C126.874 140.136 156.181 110.829 156.181 74.8062C156.181 38.7831 126.874 9.47256 90.8507 9.47256Z" fill="#D9DDE8"/>
<path d="M21.4347 44.5779C24.679 44.5779 27.3091 41.9478 27.3091 38.7035C27.3091 35.4592 24.679 32.8291 21.4347 32.8291C18.1904 32.8291 15.5603 35.4592 15.5603 38.7035C15.5603 41.9478 18.1904 44.5779 21.4347 44.5779Z" fill="#F0F2FA"/>
<path d="M21.4274 44.9428C19.8449 44.945 18.3202 44.3477 17.1602 43.2712C16.0001 42.1947 15.2908 40.7189 15.1749 39.1406C15.0589 37.5623 15.545 35.9986 16.5352 34.7642C17.5255 33.5297 18.9465 32.7161 20.5124 32.4869C22.0783 32.2577 23.6729 32.6301 24.9753 33.529C26.2778 34.4279 27.1915 35.7868 27.5327 37.3321C27.8739 38.8775 27.6172 40.4947 26.8143 41.8584C26.0113 43.2222 24.7218 44.2313 23.2049 44.6827C22.6282 44.8552 22.0294 44.9428 21.4274 44.9428ZM21.4274 33.194C20.454 33.1928 19.4975 33.4494 18.6555 33.9379C17.8134 34.4264 17.1159 35.1293 16.6337 35.975C16.1516 36.8208 15.9022 37.7791 15.9109 38.7526C15.9196 39.726 16.186 40.6798 16.6831 41.5168C17.1801 42.3538 17.8901 43.0442 18.7407 43.5176C19.5913 43.991 20.5522 44.2306 21.5255 44.212C22.4988 44.1934 23.4498 43.9173 24.2817 43.4116C25.1136 42.906 25.7966 42.189 26.2614 41.3337C26.7174 40.4965 26.9482 39.5553 26.9313 38.6022C26.9144 37.6491 26.6503 36.7167 26.1649 35.8963C25.6795 35.0758 24.9894 34.3955 24.1621 33.9218C23.3348 33.4482 22.3988 33.1974 21.4455 33.194H21.4274Z" fill="#D9DDE8"/>
<path d="M32.0454 23.9169C34.1305 23.9169 35.8208 22.2266 35.8208 20.1416C35.8208 18.0565 34.1305 16.3662 32.0454 16.3662C29.9604 16.3662 28.2701 18.0565 28.2701 20.1416C28.2701 22.2266 29.9604 23.9169 32.0454 23.9169Z" fill="#F0F2FA"/>
<path d="M32.0418 24.2809C30.9904 24.2791 29.9787 23.8795 29.2099 23.1624C28.4411 22.4452 27.9721 21.4637 27.8974 20.4149C27.8226 19.3662 28.1475 18.3281 28.8068 17.5091C29.4661 16.6901 30.411 16.151 31.4515 16.0001C32.492 15.8492 33.551 16.0977 34.4158 16.6957C35.2806 17.2937 35.887 18.1968 36.1132 19.2235C36.3394 20.2503 36.1687 21.3246 35.6352 22.2306C35.1018 23.1366 34.2452 23.8072 33.2377 24.1075C32.8498 24.2242 32.4468 24.2827 32.0418 24.2809ZM32.0418 16.7229C31.7128 16.7234 31.3856 16.7709 31.07 16.8638C30.2466 17.1086 29.5463 17.656 29.11 18.396C28.6738 19.136 28.5338 20.0137 28.7183 20.8527C28.9028 21.6917 29.398 22.4297 30.1045 22.9184C30.8109 23.4071 31.6762 23.6103 32.5264 23.487C33.3765 23.3638 34.1485 22.9233 34.687 22.254C35.2256 21.5848 35.4909 20.7365 35.4295 19.8797C35.3681 19.0228 34.9847 18.221 34.3562 17.6354C33.7277 17.0498 32.9009 16.7238 32.0418 16.7229Z" fill="#D9DDE8"/>
<path d="M168.569 108.998C171.813 108.998 174.443 106.368 174.443 103.123C174.443 99.8791 171.813 97.249 168.569 97.249C165.325 97.249 162.695 99.8791 162.695 103.123C162.695 106.368 165.325 108.998 168.569 108.998Z" fill="#F0F2FA"/>
<path d="M168.558 109.359C167.137 109.358 165.759 108.871 164.652 107.979C163.546 107.087 162.777 105.845 162.473 104.456C162.169 103.068 162.349 101.617 162.982 100.345C163.615 99.0728 164.664 98.0549 165.955 97.4601C167.245 96.8653 168.7 96.7292 170.079 97.0745C171.458 97.4197 172.677 98.2255 173.535 99.3583C174.393 100.491 174.839 101.883 174.797 103.304C174.756 104.724 174.231 106.088 173.309 107.17C172.779 107.795 172.131 108.308 171.401 108.68C170.671 109.053 169.874 109.276 169.057 109.337C168.891 109.352 168.724 109.359 168.558 109.359ZM168.576 97.6103C168.428 97.6103 168.284 97.6103 168.132 97.6283C167.228 97.6993 166.355 97.9923 165.591 98.4812C164.827 98.9702 164.196 99.6401 163.753 100.431C163.31 101.223 163.069 102.111 163.051 103.018C163.034 103.925 163.24 104.822 163.652 105.63C164.065 106.438 164.67 107.131 165.414 107.65C166.159 108.168 167.019 108.494 167.92 108.6C168.821 108.706 169.734 108.588 170.578 108.256C171.422 107.925 172.172 107.39 172.76 106.7C173.444 105.9 173.884 104.92 174.029 103.878C174.174 102.835 174.017 101.773 173.577 100.816C173.137 99.8599 172.432 99.0497 171.546 98.4816C170.659 97.9134 169.629 97.611 168.576 97.6103Z" fill="#D9DDE8"/>
<path d="M154.085 122.766C156.17 122.766 157.861 121.075 157.861 118.99C157.861 116.905 156.17 115.215 154.085 115.215C152 115.215 150.31 116.905 150.31 118.99C150.31 121.075 152 122.766 154.085 122.766Z" fill="#F0F2FA"/>
<path d="M154.082 123.127C153.139 123.125 152.225 122.801 151.491 122.208C150.758 121.615 150.249 120.79 150.048 119.868C149.848 118.947 149.969 117.985 150.39 117.141C150.812 116.298 151.509 115.623 152.366 115.23C153.223 114.837 154.189 114.749 155.103 114.979C156.017 115.21 156.825 115.746 157.393 116.499C157.961 117.252 158.255 118.176 158.225 119.119C158.196 120.061 157.846 120.966 157.232 121.682C156.843 122.136 156.36 122.501 155.816 122.751C155.272 123 154.68 123.129 154.082 123.127ZM154.082 115.576C153.509 115.576 152.945 115.72 152.443 115.995C151.94 116.269 151.515 116.666 151.206 117.148C150.897 117.631 150.714 118.183 150.674 118.754C150.635 119.326 150.74 119.898 150.979 120.418C151.219 120.939 151.586 121.39 152.046 121.732C152.506 122.073 153.044 122.293 153.611 122.372C154.179 122.451 154.757 122.385 155.292 122.182C155.828 121.979 156.303 121.644 156.676 121.208C157.1 120.712 157.372 120.105 157.462 119.459C157.552 118.813 157.454 118.155 157.181 117.562C156.908 116.969 156.471 116.467 155.922 116.115C155.373 115.763 154.734 115.576 154.082 115.576Z" fill="#D9DDE8"/>
<path d="M54.5783 105.038H125.642C126.47 105.038 127.264 104.709 127.849 104.124C128.434 103.538 128.763 102.745 128.763 101.917V48.5052C128.763 47.6774 128.434 46.8834 127.849 46.298C127.264 45.7127 126.47 45.3838 125.642 45.3838H54.5747C54.1659 45.3838 53.7611 45.4644 53.3835 45.6209C53.0059 45.7775 52.6628 46.0069 52.3739 46.2961C52.085 46.5854 51.856 46.9287 51.6999 47.3065C51.5437 47.6843 51.4636 48.0892 51.4641 48.498V101.924C51.4641 102.75 51.7922 103.542 52.3763 104.126C52.9603 104.71 53.7524 105.038 54.5783 105.038Z" fill="#7D8FAA"/>
<path d="M125.642 105.399H54.5783C53.6569 105.398 52.7734 105.032 52.1219 104.38C51.4703 103.729 51.1038 102.845 51.1028 101.924V48.498C51.1028 47.5768 51.4685 46.6934 52.1195 46.0417C52.7705 45.39 53.6536 45.0234 54.5747 45.0225H125.642C126.565 45.0234 127.451 45.3907 128.103 46.0436C128.756 46.6965 129.124 47.5818 129.125 48.5052V101.917C129.124 102.84 128.756 103.725 128.103 104.378C127.451 105.031 126.565 105.398 125.642 105.399ZM54.5747 45.745C53.8452 45.746 53.1459 46.0364 52.6304 46.5526C52.1149 47.0688 51.8254 47.7685 51.8254 48.498V101.924C51.8264 102.654 52.1167 103.353 52.6328 103.869C53.1488 104.385 53.8485 104.676 54.5783 104.677H125.642C126.374 104.676 127.075 104.385 127.593 103.867C128.11 103.35 128.401 102.648 128.402 101.917V48.5052C128.401 47.7734 128.11 47.0719 127.593 46.5545C127.075 46.0371 126.374 45.746 125.642 45.745H54.5747Z" fill="#6E8499"/>
<path d="M125.606 45.6548L90.4172 49.3218C90.2958 49.3443 90.1705 49.3318 90.0559 49.2857L73.8779 42.7501C73.8012 42.7183 73.7188 42.7023 73.6358 42.7032H54.6434C54.4719 42.7032 54.3074 42.7713 54.1861 42.8926C54.0648 43.0138 53.9967 43.1783 53.9967 43.3498V101.349C53.9967 101.434 54.0134 101.519 54.0459 101.597C54.0784 101.675 54.1261 101.747 54.1861 101.807C54.2462 101.867 54.3175 101.914 54.3959 101.947C54.4744 101.979 54.5585 101.996 54.6434 101.996H87.881C87.8629 102.1 87.852 102.205 87.8485 102.311C87.8724 102.923 88.1324 103.502 88.5739 103.926C89.0154 104.351 89.6041 104.588 90.2167 104.588C90.8292 104.588 91.418 104.351 91.8595 103.926C92.301 103.502 92.561 102.923 92.5849 102.311C92.5814 102.205 92.5705 102.1 92.5523 101.996H125.725C125.81 101.996 125.894 101.979 125.972 101.947C126.051 101.914 126.122 101.867 126.182 101.807C126.242 101.747 126.29 101.675 126.322 101.597C126.355 101.519 126.372 101.434 126.372 101.349V46.287C126.371 46.1923 126.35 46.0988 126.309 46.0132C126.269 45.9276 126.21 45.852 126.137 45.7917C126.064 45.7314 125.978 45.6878 125.886 45.6642C125.795 45.6405 125.699 45.6373 125.606 45.6548Z" fill="white"/>
<path d="M90.233 105.038C89.5173 105.038 88.8301 104.758 88.3193 104.256C87.8085 103.755 87.5149 103.073 87.5017 102.358H54.6434C54.3761 102.358 54.1197 102.251 53.9307 102.062C53.7416 101.873 53.6354 101.617 53.6354 101.35V43.3537C53.6354 43.0863 53.7416 42.83 53.9307 42.6409C54.1197 42.4519 54.3761 42.3457 54.6434 42.3457H73.6358C73.7596 42.3477 73.882 42.3722 73.9971 42.418L90.1788 48.9571C90.2308 48.9716 90.2857 48.9716 90.3377 48.9571L125.541 45.2865C125.685 45.2624 125.832 45.2699 125.973 45.3085C126.114 45.3471 126.245 45.4159 126.357 45.51C126.468 45.6042 126.558 45.7215 126.62 45.8538C126.682 45.9862 126.714 46.1303 126.715 46.2764V101.35C126.715 101.617 126.609 101.873 126.42 102.062C126.231 102.251 125.974 102.358 125.707 102.358H92.9606C92.9474 103.073 92.6543 103.754 92.1443 104.255C91.6343 104.756 90.948 105.038 90.233 105.038ZM54.6434 43.0646C54.6059 43.0646 54.5688 43.072 54.5342 43.0864C54.4996 43.1007 54.4681 43.1217 54.4416 43.1482C54.4151 43.1747 54.3941 43.2062 54.3797 43.2408C54.3654 43.2755 54.358 43.3126 54.358 43.3501V101.35C54.358 101.425 54.3881 101.498 54.4416 101.552C54.4951 101.605 54.5677 101.635 54.6434 101.635H88.3073L88.2459 102.101C88.2332 102.17 88.2259 102.24 88.2242 102.311C88.2462 102.828 88.4672 103.317 88.8412 103.676C89.2152 104.034 89.7132 104.234 90.2311 104.234C90.7491 104.234 91.2471 104.034 91.6211 103.676C91.995 103.317 92.2161 102.828 92.238 102.311C92.2364 102.24 92.2291 102.17 92.2164 102.101L92.155 101.635H125.725C125.8 101.634 125.872 101.604 125.926 101.551C125.979 101.497 126.009 101.425 126.01 101.35V46.2873C126.011 46.2455 126.001 46.2043 125.983 46.1668C125.965 46.1292 125.938 46.0963 125.906 46.0705C125.874 46.0432 125.837 46.0235 125.797 46.0129C125.757 46.0022 125.715 46.0009 125.674 46.0091H125.645L90.4569 49.6797C90.2776 49.7085 90.0939 49.6872 89.9259 49.6182L73.7442 43.0827C73.7112 43.0683 73.6755 43.0609 73.6394 43.061L54.6434 43.0646Z" fill="#D8DCE8"/>
<path d="M90.1824 102.093V45.882C90.1814 45.7386 90.133 45.5996 90.0448 45.4866C89.9566 45.3736 89.8335 45.2928 89.6947 45.257L60.0156 37.7894C59.9203 37.7652 59.8208 37.7631 59.7245 37.7832C59.6283 37.8032 59.5379 37.845 59.4603 37.9053C59.3826 37.9655 59.3197 38.0427 59.2763 38.1309C59.2329 38.2191 59.2102 38.3161 59.21 38.4144V93.8996C59.2095 94.0526 59.2634 94.2009 59.3619 94.3179C59.4605 94.435 59.5974 94.5134 59.7483 94.539L87.7654 99.2645C87.7654 99.2645 89.7488 99.5463 90.1824 102.093Z" fill="white"/>
<path d="M89.8247 102.155C89.4634 99.9154 87.7835 99.6264 87.7112 99.6264L59.6905 94.8973C59.455 94.8587 59.241 94.7375 59.0868 94.5554C58.9325 94.3734 58.8481 94.1424 58.8487 93.9038V38.415C58.8497 38.2621 58.8854 38.1115 58.953 37.9744C59.0206 37.8373 59.1184 37.7172 59.239 37.6234C59.3597 37.5295 59.5001 37.4642 59.6496 37.4323C59.7991 37.4005 59.9539 37.403 60.1023 37.4395L89.7814 44.9108C89.9988 44.9654 90.1918 45.091 90.3299 45.2677C90.468 45.4444 90.5432 45.662 90.5437 45.8862V102.094L89.8247 102.155ZM59.8567 38.1332C59.7816 38.1332 59.7095 38.1628 59.6561 38.2155C59.6027 38.2683 59.5722 38.3399 59.5713 38.415V93.9002C59.5712 93.9678 59.5951 94.0332 59.6388 94.0848C59.6825 94.1364 59.743 94.1708 59.8097 94.1819L87.8232 98.9075C88.6334 99.0706 89.3492 99.5405 89.8211 100.219V45.8826C89.8206 45.8193 89.799 45.7579 89.7597 45.7082C89.7205 45.6585 89.6658 45.6233 89.6043 45.6081L59.9253 38.1368C59.9027 38.1321 59.8796 38.1309 59.8567 38.1332Z" fill="#D8DCE8"/>
<path d="M90.1824 102.093V45.781C90.1821 45.661 90.1481 45.5434 90.0842 45.4419C90.0203 45.3403 89.9291 45.2587 89.8211 45.2065L65.2541 32.8436C65.1556 32.7943 65.0461 32.7711 64.936 32.776C64.8259 32.781 64.719 32.814 64.6252 32.8719C64.5315 32.9298 64.4541 33.0107 64.4004 33.1069C64.3467 33.2031 64.3185 33.3114 64.3184 33.4216V87.3569C64.3181 87.4854 64.3561 87.611 64.4275 87.7179C64.499 87.8247 64.6006 87.9078 64.7194 87.9566L87.3174 97.1837C88.2562 97.5894 89.0406 98.2848 89.5561 99.1681C90.0715 100.051 90.291 101.076 90.1824 102.093Z" fill="white"/>
<path d="M90.54 102.123L89.8175 102.094V101.209C89.7512 100.414 89.4719 99.6515 89.0091 99.0018C88.5463 98.3521 87.917 97.839 87.1874 97.5166L64.5894 88.2932C64.4033 88.2176 64.244 88.0881 64.132 87.9214C64.02 87.7547 63.9604 87.5583 63.9608 87.3574V33.4222C63.9605 33.2502 64.0046 33.0811 64.0888 32.9311C64.173 32.7811 64.2943 32.6553 64.4413 32.5659C64.5865 32.474 64.7533 32.4217 64.925 32.4141C65.0968 32.4064 65.2675 32.4439 65.4203 32.5226L89.9873 44.8819C90.1545 44.9653 90.2952 45.0936 90.3935 45.2525C90.4918 45.4115 90.5438 45.5946 90.5436 45.7815V101.158C90.5683 101.479 90.567 101.802 90.54 102.123ZM64.9723 33.1187C64.9198 33.1183 64.8683 33.1333 64.8242 33.162C64.7818 33.1865 64.7468 33.2218 64.7226 33.2644C64.6985 33.307 64.6862 33.3552 64.6869 33.4041V87.3574C64.686 87.4142 64.7025 87.4699 64.7341 87.5171C64.7657 87.5642 64.8111 87.6005 64.864 87.6212L87.4547 96.8446C88.4302 97.2796 89.254 97.9952 89.8211 98.9003V45.7923C89.8214 45.7394 89.8066 45.6875 89.7784 45.6428C89.7503 45.598 89.7099 45.5621 89.6621 45.5395L65.0952 33.1801C65.0589 33.1549 65.0164 33.1399 64.9723 33.1368V33.1187Z" fill="#D8DCE8"/>
<path d="M90.1823 102.094V45.3729C90.1823 45.3729 90.0992 42.6922 88.3759 41.0376C86.8947 39.5924 78.8057 31.3264 75.8179 28.2808C75.7279 28.1902 75.6131 28.1282 75.4879 28.1028C75.3627 28.0774 75.2328 28.0896 75.1145 28.1379C74.9963 28.1862 74.895 28.2684 74.8234 28.3742C74.7518 28.48 74.7132 28.6047 74.7124 28.7324V81.1214C74.712 81.2914 74.7781 81.4548 74.8967 81.5766L89.3189 96.1867C89.3364 96.2031 89.3522 96.2212 89.3659 96.2409C89.5461 96.4756 89.6965 96.7316 89.8138 97.0032C89.9799 97.4579 90.108 97.9255 90.1968 98.4014" fill="white"/>
<path d="M90.5437 102.094H89.8211V98.4377C89.7385 97.9992 89.6176 97.5689 89.4598 97.1515C89.3528 96.907 89.2183 96.6755 89.0588 96.4615L74.6077 81.8297C74.5137 81.7347 74.4397 81.6218 74.3901 81.4977C74.3404 81.3736 74.3161 81.2408 74.3187 81.1071V28.7615C74.3154 28.56 74.3726 28.3622 74.4829 28.1935C74.5932 28.0249 74.7515 27.8932 74.9374 27.8154C75.1233 27.7376 75.3283 27.7174 75.5258 27.7572C75.7233 27.797 75.9044 27.8952 76.0456 28.0389C79.3585 31.4313 87.1729 39.3795 88.6144 40.8246C90.4208 42.5406 90.5401 45.2755 90.5437 45.3911V102.094ZM75.3483 28.4725C75.31 28.4729 75.272 28.4802 75.2363 28.4941C75.1831 28.5154 75.1377 28.5524 75.1061 28.6002C75.0744 28.6479 75.0581 28.7042 75.0593 28.7615V81.1216C75.0592 81.1967 75.0876 81.269 75.1388 81.3239L89.561 95.9304L89.6369 96.0135C89.673 96.0641 89.7416 96.1544 89.8211 96.2772V45.3839C89.8211 45.3839 89.7163 42.855 88.1123 41.3267C86.6672 39.8816 78.8419 31.9335 75.547 28.5592C75.5218 28.5316 75.4911 28.5097 75.4568 28.4948C75.4226 28.4798 75.3856 28.4722 75.3483 28.4725Z" fill="#D8DCE8"/>
<path d="M90.1823 101.931H90.2149C90.3305 101.404 90.8218 99.7636 92.285 99.7636H125.703C125.79 99.764 125.877 99.7473 125.957 99.7143C126.038 99.6813 126.111 99.6326 126.173 99.5712C126.235 99.5098 126.284 99.4367 126.317 99.3563C126.351 99.2758 126.368 99.1896 126.368 99.1024V43.3535C126.368 43.2664 126.351 43.1801 126.317 43.0997C126.284 43.0192 126.235 42.9462 126.173 42.8848C126.111 42.8233 126.038 42.7747 125.957 42.7417C125.877 42.7087 125.79 42.6919 125.703 42.6924H92.5848C92.2504 42.7085 91.9224 42.7909 91.62 42.9348C91.3176 43.0787 91.0468 43.2812 90.8233 43.5306C90.5998 43.7799 90.428 44.0712 90.318 44.3875C90.208 44.7038 90.1619 45.0388 90.1823 45.3731V101.931Z" fill="white"/>
<path d="M90.4931 102.332L89.8356 102.271V101.931V45.3838C89.8356 42.4719 92.5704 42.3418 92.5993 42.3418H125.718C125.989 42.3418 126.25 42.4494 126.442 42.641C126.634 42.8327 126.743 43.0927 126.744 43.3642V99.0987C126.743 99.3702 126.634 99.6302 126.442 99.8218C126.25 100.013 125.989 100.121 125.718 100.121H92.2995C91.1037 100.121 90.681 101.566 90.5798 102.018L90.4931 102.332ZM92.5849 43.0824C92.2978 43.0985 92.0168 43.1715 91.7581 43.2972C91.4995 43.4229 91.2685 43.5988 91.0785 43.8146C90.8886 44.0305 90.7434 44.282 90.6516 44.5545C90.5598 44.827 90.5231 45.115 90.5437 45.4018V100.316C90.7379 100.034 90.9979 99.8031 91.3013 99.6439C91.6048 99.4846 91.9424 99.4016 92.285 99.4021H125.703C125.783 99.4021 125.86 99.3707 125.917 99.3145C125.973 99.2584 126.006 99.1821 126.007 99.1023V43.3534C126.006 43.2735 125.973 43.1973 125.917 43.1411C125.86 43.085 125.783 43.0535 125.703 43.0535L92.5849 43.0824Z" fill="#D8DCE8"/>
<path d="M101.223 99.7598C101.223 99.7598 101.122 102.99 102.961 105.273C103.723 106.176 105.396 108.015 105.183 111.967C105.18 112.037 105.192 112.105 105.217 112.17C105.242 112.235 105.279 112.294 105.328 112.343C105.376 112.393 105.434 112.432 105.498 112.459C105.561 112.485 105.63 112.499 105.699 112.498H108.416C108.548 112.499 108.675 112.448 108.77 112.357C108.866 112.266 108.923 112.142 108.929 112.011C108.969 110.988 108.929 108.568 107.827 106.812C106.91 105.367 105.66 104.016 105.443 102.921C105.185 101.887 105.064 100.825 105.081 99.7598H101.223Z" fill="#D4DCEE"/>
<path d="M108.416 112.86H105.699C105.58 112.859 105.461 112.835 105.352 112.788C105.242 112.74 105.142 112.672 105.06 112.585C104.978 112.501 104.915 112.4 104.875 112.29C104.834 112.18 104.817 112.063 104.825 111.946C105.02 108.264 103.55 106.527 102.758 105.594L102.683 105.504C100.779 103.138 100.858 99.8863 100.876 99.749V99.3877H105.446V99.749C105.434 100.784 105.555 101.816 105.808 102.82C105.952 103.492 106.53 104.316 107.166 105.183C107.498 105.641 107.838 106.115 108.149 106.61C109.316 108.463 109.345 111.006 109.301 112.029C109.292 112.256 109.194 112.47 109.028 112.625C108.863 112.78 108.643 112.865 108.416 112.86ZM101.588 100.121C101.628 100.995 101.855 103.326 103.243 105.045L103.311 105.128C104.106 106.064 105.757 108.019 105.544 111.993C105.544 112.03 105.558 112.067 105.584 112.094C105.598 112.11 105.616 112.122 105.636 112.131C105.656 112.14 105.678 112.144 105.699 112.144H108.416C108.455 112.145 108.492 112.13 108.52 112.104C108.548 112.078 108.565 112.042 108.568 112.004C108.604 111.064 108.568 108.694 107.52 107.011C107.224 106.537 106.888 106.071 106.566 105.623C105.894 104.691 105.262 103.817 105.089 103.004C104.854 102.058 104.733 101.088 104.727 100.114L101.588 100.121Z" fill="#B2BFD3"/>
<path d="M119.163 82.9357L118.163 84.3438L120.234 85.8143L121.234 84.4063L119.163 82.9357Z" fill="#D4DCEE"/>
<path d="M120.306 86.3164L117.647 84.4305L119.067 82.4326L121.751 84.3221L120.306 86.3164ZM118.655 84.2571L120.136 85.3084L120.718 84.4919L119.236 83.4406L118.655 84.2571Z" fill="#B2BFD3"/>
<path d="M109.189 88.524C115.824 88.524 121.202 83.1459 121.202 76.5115C121.202 69.8772 115.824 64.499 109.189 64.499C102.555 64.499 97.1768 69.8772 97.1768 76.5115C97.1768 83.1459 102.555 88.524 109.189 88.524Z" fill="#D4DCEE"/>
<path d="M109.189 88.8745C106.742 88.8745 104.35 88.1488 102.315 86.7892C100.28 85.4295 98.6939 83.497 97.7573 81.236C96.8208 78.975 96.5757 76.487 97.0532 74.0867C97.5306 71.6865 98.7091 69.4817 100.44 67.7512C102.17 66.0206 104.375 64.8422 106.775 64.3647C109.175 63.8873 111.663 64.1323 113.924 65.0689C116.185 66.0054 118.118 67.5914 119.478 69.6262C120.837 71.6611 121.563 74.0534 121.563 76.5007C121.56 79.7816 120.256 82.9273 117.936 85.2472C115.616 87.5671 112.47 88.8717 109.189 88.8745ZM109.189 64.8495C106.885 64.8495 104.632 65.5328 102.716 66.8131C100.8 68.0934 99.3067 69.913 98.4249 72.042C97.543 74.171 97.3123 76.5137 97.7619 78.7738C98.2114 81.0339 99.3211 83.11 100.951 84.7394C102.58 86.3689 104.656 87.4785 106.916 87.9281C109.176 88.3777 111.519 88.1469 113.648 87.2651C115.777 86.3832 117.597 84.8899 118.877 82.9738C120.157 81.0578 120.84 78.8051 120.84 76.5007C120.834 73.4137 119.604 70.4552 117.42 68.2733C115.236 66.0914 112.276 64.8642 109.189 64.8604V64.8495Z" fill="#B2BFD3"/>
<path d="M123.33 83.9289C122.399 83.231 121.079 83.4196 120.381 84.3502C119.683 85.2808 119.872 86.601 120.802 87.2989L136.184 98.8352C137.115 99.5332 138.435 99.3446 139.133 98.414C139.831 97.4834 139.642 96.1632 138.711 95.4652L123.33 83.9289Z" fill="#D4DCEE"/>
<path d="M137.582 100.121C137.046 100.121 136.524 99.9463 136.097 99.6221L120.754 88.0395C120.232 87.6448 119.887 87.0591 119.797 86.4109C119.706 85.7627 119.876 85.105 120.27 84.5821C120.665 84.0608 121.251 83.7172 121.898 83.6265C122.546 83.5357 123.204 83.7053 123.727 84.098L139.071 95.6842C139.593 96.0789 139.937 96.6646 140.028 97.3128C140.118 97.961 139.948 98.6187 139.555 99.1416C139.324 99.4462 139.026 99.6931 138.683 99.863C138.341 100.033 137.964 100.121 137.582 100.121ZM120.848 85.0192C120.569 85.3882 120.449 85.8527 120.512 86.3106C120.576 86.7685 120.819 87.1824 121.187 87.4615L136.531 99.0477C136.903 99.324 137.37 99.4412 137.829 99.3734C138.287 99.3057 138.7 99.0586 138.977 98.6864C139.255 98.3168 139.376 97.8518 139.312 97.3933C139.249 96.9348 139.006 96.5202 138.637 96.2405L123.29 84.6579C123.106 84.5212 122.897 84.4221 122.674 84.3662C122.452 84.3104 122.221 84.2989 121.994 84.3325C121.767 84.366 121.549 84.4439 121.352 84.5618C121.156 84.6796 120.984 84.8351 120.848 85.0192Z" fill="#B2BFD3"/>
<path d="M119.879 51.3017H94.9512C94.8554 51.3017 94.7635 51.2636 94.6958 51.1958C94.628 51.1281 94.59 51.0362 94.59 50.9404C94.59 50.8446 94.628 50.7527 94.6958 50.6849C94.7635 50.6172 94.8554 50.5791 94.9512 50.5791H119.879C119.975 50.5791 120.067 50.6172 120.135 50.6849C120.203 50.7527 120.241 50.8446 120.241 50.9404C120.241 51.0362 120.203 51.1281 120.135 51.1958C120.067 51.2636 119.975 51.3017 119.879 51.3017Z" fill="#CAD4E5"/>
<path d="M119.879 56.0233H94.9512C94.8554 56.0233 94.7635 55.9853 94.6958 55.9175C94.628 55.8498 94.59 55.7579 94.59 55.6621C94.59 55.5662 94.628 55.4744 94.6958 55.4066C94.7635 55.3388 94.8554 55.3008 94.9512 55.3008H119.879C119.975 55.3008 120.067 55.3388 120.135 55.4066C120.203 55.4744 120.241 55.5662 120.241 55.6621C120.241 55.7579 120.203 55.8498 120.135 55.9175C120.067 55.9853 119.975 56.0233 119.879 56.0233Z" fill="#CAD4E5"/>
</svg>
