<svg width="190" height="150" viewBox="0 0 190 150" fill="none" xmlns="http://www.w3.org/2000/svg">
<path d="M91.8805 140.865C128.161 140.865 157.572 111.377 157.572 75.0016C157.572 38.6265 128.161 9.13867 91.8805 9.13867C55.6002 9.13867 26.1892 38.6265 26.1892 75.0016C26.1892 111.377 55.6002 140.865 91.8805 140.865Z" fill="#F0F2FA"/>
<path d="M91.8804 141.227C55.46 141.227 25.8279 111.525 25.8279 75.0017C25.8279 38.4788 55.4527 8.77295 91.8804 8.77295C128.308 8.77295 157.933 38.4752 157.933 75.0017C157.933 111.528 128.301 141.227 91.8804 141.227ZM91.8804 9.49739C55.8574 9.49739 26.5504 38.8809 26.5504 75.0017C26.5504 111.123 55.8574 140.502 91.8804 140.502C127.904 140.502 157.21 111.119 157.21 75.0017C157.21 38.8845 127.893 9.49739 91.8804 9.49739Z" fill="#D9DDE8"/>
<path d="M173.219 50.2619C176.463 50.2619 179.093 47.625 179.093 44.3722C179.093 41.1193 176.463 38.4824 173.219 38.4824C169.974 38.4824 167.344 41.1193 167.344 44.3722C167.344 47.625 169.974 50.2619 173.219 50.2619Z" fill="#F0F2FA"/>
<path d="M173.226 50.6277C171.694 50.6314 170.213 50.0702 169.067 49.0509C167.92 48.0315 167.187 46.6252 167.007 45.0994C166.828 43.5736 167.214 42.0348 168.092 40.7757C168.97 39.5166 170.279 38.6251 171.77 38.2708C173.262 37.9166 174.831 38.1242 176.179 38.8542C177.527 39.5843 178.561 40.7858 179.083 42.2302C179.606 43.6746 179.58 45.2611 179.012 46.6879C178.443 48.1147 177.372 49.2823 176.001 49.9684C175.139 50.4016 174.189 50.6273 173.226 50.6277ZM173.226 38.8446C172.375 38.8461 171.535 39.0444 170.773 39.4242C169.632 39.9941 168.724 40.943 168.203 42.1092C167.681 43.2753 167.58 44.5866 167.914 45.8195C168.249 47.0525 169 48.1309 170.039 48.8711C171.078 49.6112 172.341 49.9673 173.612 49.8787C174.884 49.7901 176.085 49.2622 177.012 48.385C177.939 47.5078 178.534 46.3356 178.695 45.068C178.857 43.8004 178.575 42.5159 177.898 41.4333C177.221 40.3507 176.19 39.537 174.982 39.1308C174.412 38.9402 173.816 38.8435 173.215 38.8446H173.226Z" fill="#D9DDE8"/>
<path d="M179.79 27.5724C181.875 27.5724 183.566 25.8777 183.566 23.7872C183.566 21.6967 181.875 20.002 179.79 20.002C177.705 20.002 176.015 21.6967 176.015 23.7872C176.015 25.8777 177.705 27.5724 179.79 27.5724Z" fill="#F0F2FA"/>
<path d="M179.787 27.9345C178.912 27.9327 178.06 27.6528 177.354 27.1351C176.648 26.6174 176.123 25.8886 175.856 25.0533C175.589 24.218 175.593 23.3194 175.867 22.4865C176.142 21.6536 176.672 20.9293 177.383 20.4178C178.094 19.9063 178.948 19.6339 179.823 19.6397C180.698 19.6456 181.548 19.9293 182.252 20.4502C182.956 20.9711 183.477 21.7024 183.74 22.5388C184.003 23.3753 183.996 24.2739 183.717 25.1056C183.442 25.9317 182.914 26.6498 182.209 27.1577C181.503 27.6656 180.655 27.9375 179.787 27.9345ZM179.787 20.3605C178.928 20.36 178.1 20.6837 177.469 21.2671C176.837 21.8505 176.448 22.6509 176.378 23.5091C176.309 24.3672 176.564 25.2202 177.093 25.8984C177.622 26.5765 178.386 27.0301 179.234 27.1689C180.081 27.3077 180.95 27.1215 181.667 26.6474C182.384 26.1733 182.896 25.446 183.102 24.6102C183.309 23.7744 183.194 22.8914 182.78 22.1368C182.367 21.3823 181.685 20.8115 180.871 20.538C180.523 20.4214 180.16 20.3614 179.794 20.3605H179.787Z" fill="#D9DDE8"/>
<path d="M12.3051 101.429C15.5494 101.429 18.1794 98.7924 18.1794 95.5396C18.1794 92.2868 15.5494 89.6499 12.3051 89.6499C9.06072 89.6499 6.43066 92.2868 6.43066 95.5396C6.43066 98.7924 9.06072 101.429 12.3051 101.429Z" fill="#F0F2FA"/>
<path d="M12.316 101.785C11.2319 101.786 10.1662 101.503 9.22425 100.965C8.28229 100.427 7.49663 99.6519 6.94488 98.7162C6.39312 97.7806 6.09436 96.7168 6.07809 95.6299C6.06183 94.5431 6.32863 93.4708 6.85214 92.519C7.37565 91.5671 8.13776 90.7687 9.06319 90.2025C9.98862 89.6363 11.0454 89.3219 12.129 89.2905C13.2127 89.259 14.2858 89.5115 15.2424 90.0231C16.199 90.5346 17.0059 91.2875 17.5834 92.2074C18.178 93.152 18.5089 94.2392 18.5417 95.3558C18.5746 96.4723 18.3081 97.5772 17.7701 98.5553C17.2322 99.5334 16.4424 100.349 15.4831 100.917C14.5238 101.485 13.4301 101.785 12.316 101.785ZM12.2835 90.0123C10.8751 90.0147 9.52094 90.5574 8.499 91.5291C7.47706 92.5008 6.86481 93.8279 6.78788 95.2379C6.71095 96.6479 7.17517 98.034 8.08529 99.1116C8.99541 100.189 10.2824 100.877 11.6822 101.033C13.0819 101.19 14.4883 100.803 15.6128 99.9527C16.7372 99.1023 17.4943 97.8527 17.7289 96.4603C17.9634 95.0679 17.6576 93.6383 16.8741 92.4649C16.0905 91.2914 14.8888 90.4631 13.5155 90.1499C13.111 90.0593 12.6979 90.0131 12.2835 90.0123Z" fill="#D9DDE8"/>
<path d="M24.7331 116.839C26.8182 116.839 28.5085 115.144 28.5085 113.053C28.5085 110.963 26.8182 109.268 24.7331 109.268C22.6481 109.268 20.9578 110.963 20.9578 113.053C20.9578 115.144 22.6481 116.839 24.7331 116.839Z" fill="#F0F2FA"/>
<path d="M24.7403 117.204C24.1523 117.215 23.5688 117.099 23.0288 116.866C22.4888 116.632 22.0047 116.286 21.6088 115.85C21.2128 115.414 20.9141 114.898 20.7327 114.337C20.5512 113.776 20.491 113.183 20.5563 112.597C20.6216 112.011 20.8107 111.446 21.1111 110.939C21.4115 110.432 21.8162 109.995 22.2984 109.657C22.7805 109.32 23.3288 109.089 23.9069 108.981C24.485 108.872 25.0795 108.889 25.6508 109.029C26.1793 109.145 26.6796 109.364 27.123 109.675C27.5664 109.986 27.9439 110.382 28.2339 110.84C28.6285 111.467 28.8483 112.189 28.8703 112.93C28.8923 113.671 28.7157 114.404 28.359 115.054C28.0023 115.703 27.4784 116.245 26.842 116.622C26.2056 117 25.4798 117.2 24.7403 117.201V117.204ZM24.7403 109.63C23.9823 109.63 23.2456 109.882 22.6462 110.347C22.0468 110.812 21.6186 111.464 21.4291 112.2C21.2396 112.936 21.2995 113.714 21.5994 114.412C21.8992 115.11 22.422 115.688 23.0855 116.056C23.749 116.424 24.5156 116.56 25.2646 116.442C26.0136 116.325 26.7025 115.962 27.223 115.41C27.7435 114.857 28.066 114.147 28.1398 113.39C28.2135 112.634 28.0344 111.874 27.6306 111.231C27.3932 110.85 27.0824 110.519 26.7165 110.259C26.3506 109.999 25.9367 109.815 25.499 109.717C25.2454 109.659 24.986 109.63 24.7259 109.63H24.7403Z" fill="#D9DDE8"/>
<path d="M87.4294 106.515C87.2975 106.504 87.1746 106.444 87.0849 106.346C86.9953 106.249 86.9456 106.121 86.9456 105.988C86.9456 105.855 86.9953 105.727 87.0849 105.63C87.1746 105.532 87.2975 105.472 87.4294 105.461L97.8125 105.218C97.9444 105.229 98.0674 105.29 98.157 105.387C98.2466 105.485 98.2964 105.613 98.2964 105.745C98.2964 105.878 98.2466 106.006 98.157 106.103C98.0674 106.201 97.9444 106.261 97.8125 106.272L87.433 106.519L87.4294 106.515Z" fill="#808080"/>
<path d="M75.4768 47.8457L75.0385 106.408C75.0238 108.365 76.5938 109.963 78.5452 109.977L105.207 110.178C107.158 110.193 108.752 108.618 108.767 106.662L109.205 48.0995C109.22 46.1431 107.65 44.5452 105.698 44.5305L79.0366 44.3299C77.0852 44.3152 75.4915 45.8893 75.4768 47.8457Z" fill="#D3E0F4"/>
<path d="M105.23 110.536H105.201L78.542 110.337C77.5087 110.327 76.5213 109.907 75.7961 109.169C75.0709 108.431 74.6669 107.435 74.6727 106.399L75.1098 47.8423C75.1184 46.8117 75.5322 45.8261 76.2615 45.0997C76.9907 44.3733 77.9764 43.9648 79.0044 43.9629H79.0333L105.696 44.1621C106.729 44.1707 107.716 44.5903 108.441 45.3286C109.166 46.0669 109.569 47.0635 109.561 48.0995L109.128 106.656C109.118 107.687 108.704 108.673 107.974 109.399C107.244 110.126 106.258 110.534 105.23 110.536ZM79.0044 44.6873C78.1672 44.6883 77.3642 45.0207 76.7701 45.6122C76.1761 46.2037 75.839 47.0065 75.8324 47.8459L75.3952 106.406C75.3895 107.25 75.718 108.062 76.3087 108.663C76.8994 109.264 77.704 109.605 78.5456 109.612L105.208 109.811C106.048 109.811 106.854 109.48 107.452 108.889C108.051 108.298 108.393 107.495 108.405 106.653L108.839 48.0922C108.845 47.2484 108.516 46.4368 107.925 45.8357C107.335 45.2347 106.53 44.8933 105.688 44.8866L79.0297 44.6873H79.0044Z" fill="#BFCDDD"/>
<path d="M75.4712 47.8494V49.7547L109.2 50.0047V48.1102C109.207 47.1665 108.84 46.2587 108.179 45.5863C107.519 44.9139 106.619 44.5319 105.678 44.5242L79.0334 44.325C78.095 44.3192 77.1927 44.6872 76.5248 45.3481C75.8568 46.0089 75.4779 46.9086 75.4712 47.8494Z" fill="#A1B1C9"/>
<path d="M109.543 50.3706L75.0918 50.1134L75.1099 47.8459C75.1184 46.8143 75.5327 45.8278 76.2626 45.1007C76.9925 44.3737 77.9791 43.9648 79.0081 43.9629H79.037L105.681 44.1621C106.718 44.1726 107.708 44.5943 108.435 45.3349C109.162 46.0755 109.567 47.0747 109.561 48.114L109.543 50.3706ZM75.8216 49.3962L108.828 49.6389V48.1067C108.833 47.2593 108.502 46.4446 107.909 45.841C107.316 45.2374 106.508 44.8942 105.663 44.8866L79.0225 44.6873H78.9972C78.159 44.6883 77.3551 45.021 76.7604 45.6132C76.1656 46.2054 75.8282 47.0092 75.8216 47.8495V49.3962Z" fill="#95A4BA"/>
<path d="M75.0738 101.288L75.0088 109.949L105.186 110.174C106.129 110.18 107.035 109.812 107.706 109.149C108.378 108.486 108.759 107.583 108.767 106.638L108.803 101.538L75.0738 101.288Z" fill="#A1B1C9"/>
<path d="M105.215 110.536H105.186L74.6475 110.308L74.7161 100.922L109.168 101.18L109.128 106.642C109.118 107.677 108.702 108.666 107.97 109.395C107.237 110.124 106.247 110.534 105.215 110.536ZM75.3736 109.59L105.19 109.811C105.609 109.815 106.025 109.736 106.414 109.578C106.803 109.42 107.157 109.187 107.455 108.892C107.754 108.597 107.992 108.246 108.155 107.858C108.318 107.471 108.403 107.055 108.405 106.635L108.441 101.9L75.4314 101.654L75.3736 109.59Z" fill="#95A4BA"/>
<path d="M95.9933 104.597L91.3369 104.533C90.6086 104.523 90.0102 105.106 90.0001 105.836C89.9901 106.566 90.5723 107.167 91.3005 107.177L95.9569 107.241C96.6851 107.251 97.2836 106.667 97.2936 105.937C97.3037 105.207 96.7215 104.607 95.9933 104.597Z" fill="#8A9CB2"/>
<path d="M72.1475 137.467C72.1475 137.467 83.535 141.401 96.4507 140.3H96.5374L72.1475 137.467Z" fill="white"/>
<path d="M96.6782 140.314C96.6782 140.314 96.2482 127.872 96.2519 123.424C96.2487 123.066 96.3388 122.714 96.513 122.402C96.6873 122.09 96.9397 121.829 97.2454 121.645C103.134 118.164 105.071 111.412 105.089 111.351C105.089 111.351 105.165 111.126 105.266 110.833L92.7836 110.775C92.7836 110.775 92.7836 111.068 92.7836 111.199C92.7836 111.329 92.7836 111.329 92.6571 113.372C92.6571 113.531 92.3862 113.499 92.3934 113.336C93.2316 94.0365 77.133 89.4291 77.1222 89.4291C77.1222 89.4291 82.5124 77.9901 84.3477 73.6579C84.5658 73.1407 84.6737 72.5836 84.6643 72.0221C84.655 71.4607 84.5287 70.9075 84.2935 70.3979C83.0074 67.6631 81.0818 67.8623 79.5969 68.6157C78.3959 69.2394 77.4101 70.2113 76.7681 71.4049C74.7847 75.0054 68.5743 86.256 66.2043 90.6389C65.4294 92.04 65.1735 93.6707 65.4818 95.2427C65.7554 96.5407 66.1622 97.8067 66.6957 99.0207C66.8257 99.3137 66.9086 99.6254 66.9413 99.9444C67.6639 106.464 70.8504 114.024 72.1474 116.806C72.502 117.569 72.6787 118.402 72.664 119.244L72.3027 137.5" fill="white"/>
<path d="M96.6783 140.676C96.5824 140.676 96.4905 140.638 96.4228 140.57C96.355 140.502 96.317 140.41 96.317 140.314C96.317 140.191 95.8834 127.814 95.8871 123.409C95.8839 122.989 95.9903 122.575 96.1956 122.208C96.4009 121.842 96.698 121.535 97.0576 121.319C102.744 117.958 104.644 111.506 104.738 111.235L104.771 111.202L93.1702 111.148V111.202C93.1702 111.365 93.1702 111.365 93.0655 113.013L93.0438 113.376C93.0401 113.438 93.0241 113.5 92.9966 113.556C92.9691 113.612 92.9307 113.663 92.8837 113.704C92.8367 113.746 92.7819 113.777 92.7225 113.797C92.6632 113.817 92.6005 113.826 92.538 113.821C92.4725 113.819 92.4081 113.803 92.3485 113.776C92.2889 113.749 92.2353 113.71 92.1907 113.662C92.146 113.614 92.1113 113.557 92.0884 113.496C92.0656 113.434 92.0551 113.369 92.0575 113.303C92.8776 94.5001 77.209 89.8021 77.05 89.7586L76.6381 89.6391L76.8224 89.2552C76.873 89.1429 82.2054 77.827 84.0263 73.4985C84.2262 73.0264 84.3253 72.5176 84.3173 72.0047C84.3092 71.4919 84.194 70.9865 83.9793 70.521C83.4916 69.4814 82.8738 68.8294 82.1512 68.5795C81.4287 68.3296 80.6628 68.4527 79.7632 68.9055C78.626 69.4941 77.6938 70.4149 77.0897 71.5461C75.2111 74.951 68.8995 86.3972 66.5259 90.7801C65.7971 92.104 65.5578 93.6433 65.8504 95.1268C66.1167 96.4001 66.5151 97.642 67.039 98.8323C67.1839 99.1599 67.2766 99.5082 67.3135 99.8647C68.0975 106.917 71.7609 115.053 72.487 116.614C72.8671 117.426 73.0562 118.314 73.0398 119.211L72.6785 137.467C72.6785 137.563 72.6405 137.655 72.5727 137.723C72.505 137.791 72.4131 137.829 72.3172 137.829C72.2214 137.829 72.1295 137.791 72.0618 137.723C71.994 137.655 71.956 137.563 71.956 137.467L72.3172 119.211C72.3305 118.424 72.1649 117.645 71.8331 116.933C71.1106 115.357 67.393 107.124 66.5946 99.9588C66.5652 99.6779 66.4933 99.4031 66.3814 99.1438C65.8354 97.9063 65.4213 96.6145 65.1459 95.2898C64.8139 93.6357 65.0776 91.9172 65.8901 90.4396C68.2673 86.0603 74.5788 74.6069 76.4575 71.202C77.1325 69.9445 78.1717 68.9216 79.438 68.268C80.5219 67.721 81.5082 67.5979 82.3861 67.9058C83.264 68.2136 84.0552 68.9924 84.6332 70.224C84.8909 70.7823 85.0291 71.3885 85.0391 72.0036C85.0491 72.6187 84.9305 73.2291 84.691 73.7955C83.0544 77.693 78.5926 87.1977 77.6497 89.2081C80.0414 90.0412 92.0503 95.0036 92.7801 110.409L105.764 110.467L105.428 111.459C105.349 111.731 103.355 118.447 97.4261 121.964C97.1746 122.116 96.967 122.332 96.8239 122.589C96.6807 122.846 96.6068 123.136 96.6096 123.431C96.6096 127.825 97.0323 140.187 97.0359 140.31C97.0359 140.406 96.9979 140.499 96.9301 140.567C96.8624 140.634 96.7705 140.673 96.6746 140.673L96.6783 140.676Z" fill="#CED3DD"/>
<path d="M103.947 66.3954L112.144 60.7882C112.144 60.7882 114.901 59.1002 116.422 61.1902C117.354 62.4146 118.691 63.9504 116.422 66.1962C114.482 67.6777 109.735 70.8326 107.867 72.0678C106.512 72.9625 104.868 73.1834 103.557 71.6621L103.503 71.6041C102.043 69.4924 101.682 68.1377 103.947 66.3954Z" fill="white"/>
<path d="M105.772 73.1363C105.289 73.128 104.814 73.0125 104.381 72.7983C103.948 72.5841 103.568 72.2765 103.268 71.8975L103.188 71.8106C101.653 69.5648 101.285 67.9891 103.727 66.1056H103.745L111.942 60.4911C113.008 59.8391 115.356 59.1147 116.715 60.9801L116.82 61.1178C117.723 62.295 119.081 64.0735 116.661 66.4569L116.628 66.4859C114.688 67.9674 109.984 71.097 108.051 72.372C107.383 72.8455 106.59 73.1113 105.772 73.1363ZM103.767 71.3578L103.817 71.4121C105.19 73.0023 106.809 72.3068 107.654 71.749C109.572 70.4812 114.24 67.3806 116.173 65.9064C118.113 63.983 117.166 62.7405 116.249 61.5416L116.137 61.3967C114.829 59.5856 112.434 61.0345 112.332 61.0852L104.16 66.6743C102.141 68.2463 102.386 69.3511 103.767 71.3578Z" fill="#CED3DD"/>
<path d="M105.631 74.1939L113.832 68.5903C113.832 68.5903 116.588 66.8987 118.109 68.9924C119.038 70.2167 120.375 71.7489 118.109 73.9947C116.169 75.4798 111.418 78.6347 109.551 79.8663C108.196 80.761 106.552 80.9819 105.241 79.4606L105.186 79.4063C103.727 77.2945 103.369 75.9398 105.631 74.1939Z" fill="white"/>
<path d="M107.455 80.9385C106.972 80.9288 106.496 80.8117 106.063 80.5956C105.63 80.3795 105.251 80.0698 104.952 79.6888L104.876 79.5983C103.337 77.3525 102.968 75.7804 105.41 73.8969H105.428L113.626 68.2897C114.692 67.6377 117.04 66.9096 118.402 68.7787L118.507 68.9163C119.406 70.0935 120.768 71.872 118.348 74.2555L118.312 74.2844C116.375 75.7659 111.668 78.8919 109.735 80.1706C109.067 80.6459 108.274 80.913 107.455 80.9385ZM105.454 79.1745L105.497 79.2252C106.874 80.8189 108.496 80.1199 109.337 79.5657C111.259 78.2979 115.924 75.1936 117.856 73.723C119.8 71.7996 118.85 70.5572 117.932 69.3582L117.82 69.2133C116.512 67.4022 114.117 68.8511 114.02 68.8982L105.855 74.4873C103.824 76.0666 104.074 77.1533 105.454 79.1745Z" fill="#CED3DD"/>
<path d="M105.414 83.3111L113.611 77.7075C113.611 77.7075 116.368 76.0159 117.889 78.1096C118.821 79.3339 120.154 80.8697 117.889 83.1119C115.949 84.597 111.202 87.7519 109.33 88.9835C107.975 89.8782 106.335 90.0991 105.02 88.5778C105.02 88.5597 104.984 88.5416 104.966 88.5235C103.506 86.3972 103.149 85.0425 105.414 83.3111Z" fill="white"/>
<path d="M107.235 90.0411C106.752 90.0335 106.278 89.9184 105.845 89.7041C105.413 89.4898 105.034 89.1818 104.735 88.8023L104.655 88.7118C103.12 86.466 102.748 84.894 105.193 83.0104L113.394 77.4032C114.46 76.7512 116.809 76.0231 118.167 77.8922L118.272 78.0298C119.171 79.2071 120.533 80.9856 118.113 83.369L118.08 83.398C116.147 84.8722 111.436 88.0055 109.5 89.2841C108.835 89.7529 108.047 90.016 107.235 90.0411ZM105.233 88.2771L105.28 88.3278C106.653 89.9216 108.275 89.2225 109.117 88.6683C111.043 87.3969 115.714 84.2927 117.636 82.8257C119.58 80.8986 118.629 79.6598 117.712 78.479L117.6 78.3341C116.292 76.523 113.9 77.9719 113.799 78.019L105.623 83.6081C103.607 85.1511 103.853 86.2523 105.233 88.2771Z" fill="#CED3DD"/>
<path d="M83.4733 40.4168C83.3775 40.4168 83.2856 40.3786 83.2179 40.3107C83.1501 40.2428 83.1121 40.1506 83.1121 40.0546L83.2313 29.9848C83.2313 29.8887 83.2693 29.7966 83.3371 29.7287C83.4049 29.6607 83.4967 29.6226 83.5926 29.6226C83.6884 29.6226 83.7803 29.6607 83.848 29.7287C83.9158 29.7966 83.9538 29.8887 83.9538 29.9848L83.8346 40.0509C83.8351 40.0988 83.8261 40.1463 83.8082 40.1907C83.7902 40.235 83.7637 40.2754 83.7301 40.3094C83.6965 40.3434 83.6565 40.3704 83.6124 40.3889C83.5684 40.4073 83.5211 40.4168 83.4733 40.4168Z" fill="#9DAEC4"/>
<path d="M88.6757 42.945C88.5799 42.945 88.488 42.9069 88.4203 42.8389C88.3525 42.771 88.3145 42.6789 88.3145 42.5828L88.5348 23.8124C88.5348 23.7164 88.5729 23.6242 88.6406 23.5563C88.7084 23.4884 88.8003 23.4502 88.8961 23.4502C88.9919 23.4502 89.0838 23.4884 89.1516 23.5563C89.2193 23.6242 89.2574 23.7164 89.2574 23.8124L89.037 42.5828C89.037 42.6789 88.9989 42.771 88.9312 42.8389C88.8634 42.9069 88.7715 42.945 88.6757 42.945Z" fill="#9DAEC4"/>
<path d="M95.0163 42.5213C94.9205 42.5213 94.8286 42.4832 94.7608 42.4152C94.6931 42.3473 94.655 42.2552 94.655 42.1591L94.7128 37.1278C94.7128 37.0318 94.7509 36.9396 94.8186 36.8717C94.8864 36.8038 94.9783 36.7656 95.0741 36.7656C95.1699 36.7656 95.2618 36.8038 95.3296 36.8717C95.3973 36.9396 95.4354 37.0318 95.4354 37.1278L95.3776 42.1627C95.3766 42.2582 95.3381 42.3494 95.2705 42.4165C95.2028 42.4837 95.1115 42.5213 95.0163 42.5213Z" fill="#9DAEC4"/>
<path d="M95.1391 29.2168C95.0433 29.2168 94.9514 29.1787 94.8837 29.1107C94.8159 29.0428 94.7778 28.9507 94.7778 28.8546L94.8754 20.6466C94.8754 20.5506 94.9134 20.4584 94.9812 20.3905C95.049 20.3226 95.1408 20.2844 95.2367 20.2844C95.3325 20.2844 95.4244 20.3226 95.4921 20.3905C95.5599 20.4584 95.5979 20.5506 95.5979 20.6466L95.5004 28.8619C95.4985 28.9567 95.4596 29.0469 95.3921 29.1133C95.3245 29.1797 95.2337 29.2169 95.1391 29.2168Z" fill="#9DAEC4"/>
<path d="M101.295 22.3164C101.2 22.3164 101.108 22.2782 101.04 22.2103C100.972 22.1423 100.934 22.0502 100.934 21.9541L101.028 13.7389C101.028 13.6429 101.066 13.5507 101.134 13.4828C101.202 13.4149 101.293 13.3767 101.389 13.3767C101.485 13.3767 101.577 13.4149 101.645 13.4828C101.712 13.5507 101.751 13.6429 101.751 13.7389L101.657 21.9578C101.656 22.0532 101.617 22.1444 101.55 22.2116C101.482 22.2787 101.391 22.3164 101.295 22.3164Z" fill="#9DAEC4"/>
<path d="M101.201 40.0074C101.106 40.0074 101.014 39.9693 100.946 39.9013C100.878 39.8334 100.84 39.7413 100.84 39.6452L101.014 24.5912C101.014 24.4952 101.052 24.403 101.119 24.3351C101.187 24.2672 101.279 24.229 101.375 24.229C101.471 24.229 101.562 24.2672 101.63 24.3351C101.698 24.403 101.736 24.4952 101.736 24.5912L101.563 39.6452C101.563 39.7413 101.525 39.8334 101.457 39.9013C101.389 39.9693 101.297 40.0074 101.201 40.0074Z" fill="#9DAEC4"/>
<path d="M88.7879 22.0847C89.7536 22.0847 90.5365 21.2998 90.5365 20.3315C90.5365 19.3633 89.7536 18.5784 88.7879 18.5784C87.8222 18.5784 87.0393 19.3633 87.0393 20.3315C87.0393 21.2998 87.8222 22.0847 88.7879 22.0847Z" fill="#AFBFD8"/>
<path d="M88.7915 22.4577C88.6582 22.4581 88.5251 22.4459 88.3941 22.4215C88.0523 22.3573 87.7316 22.2095 87.4606 21.9911C87.1896 21.7728 86.9766 21.4906 86.8405 21.1698C86.7045 20.849 86.6497 20.4994 86.6809 20.1522C86.7121 19.805 86.8284 19.4709 87.0195 19.1797C87.2106 18.8884 87.4705 18.649 87.7761 18.4828C88.0817 18.3166 88.4236 18.2286 88.7713 18.2268C89.119 18.225 89.4618 18.3094 89.7691 18.4725C90.0764 18.6355 90.3388 18.8722 90.5328 19.1615C90.8443 19.6254 90.9606 20.1938 90.8564 20.7432C90.7522 21.2925 90.436 21.7785 89.9765 22.0955C89.627 22.3334 89.2139 22.4597 88.7915 22.4577ZM88.7915 18.9477C88.5723 18.9453 88.3556 18.9948 88.1591 19.0923C87.9626 19.1897 87.7918 19.3324 87.6608 19.5086C87.5298 19.6848 87.4421 19.8896 87.405 20.1062C87.3679 20.3228 87.3824 20.5452 87.4473 20.7551C87.5122 20.9651 87.6257 21.1567 87.7785 21.3143C87.9313 21.4719 88.1191 21.591 88.3266 21.662C88.5341 21.733 88.7554 21.7538 88.9724 21.7228C89.1894 21.6917 89.3961 21.6097 89.5755 21.4833C89.7259 21.3801 89.8546 21.2482 89.9542 21.0952C90.0538 20.9421 90.1223 20.7709 90.1559 20.5912C90.1894 20.4116 90.1873 20.2271 90.1497 20.0483C90.1121 19.8694 90.0398 19.6998 89.9367 19.549C89.835 19.3972 89.7039 19.2674 89.5512 19.1673C89.3986 19.0671 89.2275 18.9986 89.048 18.9659C88.961 18.9488 88.8728 18.9391 88.7843 18.9369L88.7915 18.9477Z" fill="#9DAEC4"/>
<path d="M95.2908 34.969C96.2565 34.969 97.0394 34.184 97.0394 33.2158C97.0394 32.2476 96.2565 31.4626 95.2908 31.4626C94.3251 31.4626 93.5422 32.2476 93.5422 33.2158C93.5422 34.184 94.3251 34.969 95.2908 34.969Z" fill="#AFBFD8"/>
<path d="M95.2981 35.3312C94.7909 35.3307 94.3007 35.1476 93.9167 34.8153C93.5328 34.483 93.2806 34.0235 93.2061 33.5204C93.1316 33.0174 93.2396 32.5043 93.5107 32.0744C93.7817 31.6445 94.1976 31.3265 94.6828 31.1782C95.168 31.0299 95.6901 31.0612 96.1543 31.2663C96.6184 31.4715 96.9936 31.8369 97.2117 32.296C97.4297 32.7552 97.4761 33.2776 97.3424 33.7681C97.2087 34.2587 96.9037 34.6848 96.4831 34.969C96.133 35.2057 95.7203 35.3318 95.2981 35.3312ZM95.2981 31.8212C94.9386 31.8201 94.5925 31.9577 94.3316 32.2057C94.0707 32.4537 93.9151 32.7928 93.8971 33.1528C93.879 33.5128 94 33.8659 94.2349 34.1388C94.4697 34.4117 94.8004 34.5834 95.1582 34.6183C95.516 34.6531 95.8734 34.5485 96.1563 34.3261C96.4391 34.1036 96.6257 33.7805 96.6772 33.4238C96.7287 33.0671 96.6411 32.7042 96.4328 32.4105C96.2244 32.1168 95.9112 31.9149 95.5582 31.8466C95.4702 31.8287 95.3806 31.8202 95.2909 31.8212H95.2981Z" fill="#9DAEC4"/>
<path d="M91.9346 88.2882C91.5839 88.2882 91.2476 88.1485 90.9996 87.8999C90.7516 87.6512 90.6123 87.314 90.6123 86.9624V71.3216C90.6123 68.8839 92.0357 67.9276 92.8811 67.7465L93.0148 67.7175H96.5879C96.9385 67.7175 97.2749 67.8572 97.5229 68.1058C97.7708 68.3545 97.9101 68.6917 97.9101 69.0433C97.9101 69.3949 97.7708 69.7321 97.5229 69.9807C97.2749 70.2293 96.9385 70.369 96.5879 70.369H93.4772C93.3014 70.6538 93.2228 70.9881 93.2533 71.3216V86.9624C93.2537 87.1364 93.22 87.3087 93.1539 87.4695C93.0879 87.6303 92.9908 87.7765 92.8683 87.8996C92.7458 88.0228 92.6003 88.1205 92.4401 88.1872C92.2798 88.2539 92.1081 88.2882 91.9346 88.2882Z" fill="#8998AF"/>
<path d="M96.588 76.6753H88.0437C87.8645 76.6847 87.6852 76.6574 87.5169 76.5951C87.3485 76.5329 87.1946 76.4369 87.0644 76.313C86.9342 76.1891 86.8306 76.04 86.7597 75.8747C86.6889 75.7094 86.6523 75.5313 86.6523 75.3514C86.6523 75.1714 86.6889 74.9934 86.7597 74.8281C86.8306 74.6628 86.9342 74.5136 87.0644 74.3898C87.1946 74.2659 87.3485 74.1699 87.5169 74.1076C87.6852 74.0453 87.8645 74.018 88.0437 74.0274H96.588C96.9262 74.0452 97.2448 74.1924 97.478 74.4388C97.7111 74.6851 97.8411 75.0118 97.8411 75.3514C97.8411 75.691 97.7111 76.0177 97.478 76.264C97.2448 76.5103 96.9262 76.6576 96.588 76.6753Z" fill="#8998AF"/>
</svg>
