<svg width="46" height="54" viewBox="0 0 46 54" fill="none" xmlns="http://www.w3.org/2000/svg">
<path d="M1.81214 21.3171C1.51548 21.3198 1.22338 21.2439 0.965525 21.0972C0.776391 20.9909 0.61036 20.8479 0.477144 20.6766C0.343928 20.5054 0.246204 20.3093 0.189689 20.0998C0.133174 19.8904 0.119003 19.6717 0.148006 19.4567C0.177009 19.2417 0.248603 19.0346 0.358599 18.8476C2.47844 15.3094 8.92812 7.05103 23.0018 7.05103C29.1007 7.05103 34.4498 8.653 38.8929 11.8108C42.5498 14.4023 44.5993 17.3358 45.5756 18.7486C45.6995 18.9267 45.7864 19.1278 45.8314 19.34C45.8763 19.5522 45.8784 19.7712 45.8374 19.9842C45.7964 20.1972 45.7132 20.3999 45.5928 20.5803C45.4723 20.7606 45.3169 20.9151 45.1358 21.0345C44.7658 21.2791 44.315 21.37 43.879 21.2879C43.4431 21.2058 43.0562 20.9572 42.8005 20.5947C41.0336 18.0537 35.646 10.322 23.0018 10.322C10.6598 10.322 5.07986 17.4369 3.26239 20.488C3.11635 20.7428 2.90494 20.954 2.64999 21.0998C2.39503 21.2455 2.10579 21.3205 1.81214 21.3171Z" fill="#F94167"/>
<path d="M30.0922 53.6428C29.9518 53.6445 29.8119 53.6286 29.6755 53.5956C19.4666 51.0667 15.6546 40.8611 15.4996 40.4367L15.4754 40.3433C15.3918 40.0486 13.3435 33.0503 16.488 28.9513C17.9295 27.0822 20.1219 26.1234 23.0169 26.1234C25.7085 26.1234 27.6502 26.9601 28.985 28.6918C30.0845 30.1058 30.5243 31.8496 30.9498 33.5296C31.8437 37.0283 32.4891 38.8655 36.2043 39.0546C37.836 39.1371 38.908 38.1827 39.516 37.3702C41.1598 35.1547 41.4456 31.5428 40.2065 28.3543C38.6144 24.2388 32.9641 16.4797 23.0015 16.4797C18.7486 16.4797 14.841 17.8463 11.7074 20.4148C9.11367 22.5423 7.0587 25.5461 6.06914 28.6336C4.23407 34.3818 6.64089 43.4175 6.66398 43.4999C6.72017 43.7102 6.73369 43.9296 6.70374 44.1452C6.67379 44.3608 6.60098 44.5683 6.48959 44.7553C6.3782 44.9423 6.23049 45.1051 6.05518 45.2341C5.87986 45.3632 5.68049 45.4558 5.46882 45.5065C5.04118 45.6202 4.58601 45.5619 4.20086 45.3441C3.8157 45.1262 3.53121 44.7661 3.40835 44.341C3.2984 43.9287 0.727759 34.2916 2.8476 27.6484C5.15656 20.45 12.2824 13.1932 23.0048 13.1932C27.9602 13.1932 32.6419 14.8777 36.5496 18.0585C39.5754 20.5324 42.0471 23.8551 43.3401 27.1767C44.9838 31.4175 44.5429 36.1772 42.2197 39.2866C40.6716 41.3603 38.4671 42.4444 36.0251 42.3268C29.6634 42.0079 28.5199 37.567 27.6865 34.3279C26.8289 31.0052 26.2802 29.4032 23.0048 29.4032C21.206 29.4032 19.9427 29.898 19.1565 30.9227C18.0845 32.3246 18.0009 34.5159 18.1197 36.1058C18.1976 37.2135 18.3855 38.3107 18.6804 39.3812C18.9421 40.0409 22.3495 48.3971 30.51 50.4191C30.7209 50.4691 30.9198 50.5604 31.0951 50.6879C31.2704 50.8154 31.4186 50.9765 31.5312 51.1618C31.6437 51.347 31.7183 51.5528 31.7506 51.7671C31.7829 51.9815 31.7723 52.2001 31.7194 52.4103C31.6199 52.7652 31.4069 53.0777 31.1131 53.3003C30.8193 53.5228 30.4608 53.6431 30.0922 53.6428Z" fill="#F94167"/>
<path d="M16.9886 52.8881C16.7598 52.8886 16.5332 52.843 16.3224 52.754C16.1116 52.665 15.9208 52.5345 15.7615 52.3702C11.6758 48.0822 9.36463 43.2872 8.49492 37.2917V37.2598C8.00674 33.2906 8.72142 27.671 12.2233 23.8074C14.8083 20.9563 18.4421 19.5072 23.0051 19.5072C28.4014 19.5072 32.6422 22.0163 35.2865 26.7518C37.2051 30.1922 37.5856 33.6204 37.5955 33.7612C37.6156 33.9781 37.5927 34.197 37.5281 34.4051C37.4635 34.6132 37.3585 34.8066 37.2191 34.9741C37.0797 35.1416 36.9086 35.2799 36.7157 35.3812C36.5227 35.4825 36.3117 35.5447 36.0946 35.5643C35.6567 35.6119 35.2177 35.4853 34.8723 35.2119C34.5269 34.9385 34.3029 34.5402 34.2486 34.1031C33.959 32.0461 33.2933 30.0599 32.2849 28.2439C30.2354 24.6276 27.1172 22.7892 22.993 22.7892C19.4306 22.7892 16.6433 23.8612 14.7258 25.9778C11.9617 29.0289 11.4273 33.7293 11.8066 36.8387C12.5686 42.1405 14.606 46.3582 18.2035 50.1273C18.3537 50.2835 18.4709 50.4683 18.5482 50.6707C18.6255 50.8731 18.6613 51.089 18.6535 51.3055C18.6457 51.522 18.5945 51.7348 18.5028 51.9311C18.4112 52.1274 18.281 52.3033 18.12 52.4483C17.8099 52.7293 17.407 52.886 16.9886 52.8881Z" fill="#F94167"/>
<path d="M35.8109 48.1652C32.2376 48.1652 29.1996 47.1757 26.7686 45.2086C21.8846 41.2735 21.3371 34.8645 21.3129 34.594C21.2785 34.1501 21.4219 33.7106 21.7115 33.3723C22.0011 33.0341 22.4132 32.8247 22.8572 32.7903C23.3011 32.7559 23.7406 32.8993 24.0788 33.1889C24.4171 33.4785 24.6265 33.8906 24.6609 34.3346C24.673 34.4291 25.1612 39.6715 28.9259 42.6908C31.1534 44.4698 34.1309 45.1757 37.7999 44.7633C38.2384 44.7101 38.6802 44.8327 39.0286 45.1043C39.377 45.3758 39.6037 45.7743 39.6592 46.2125C39.6832 46.429 39.6639 46.6481 39.6023 46.857C39.5407 47.0659 39.4382 47.2605 39.3006 47.4294C39.1631 47.5982 38.9933 47.738 38.8011 47.8406C38.609 47.9431 38.3983 48.0064 38.1815 48.0267C37.3946 48.1185 36.6031 48.1647 35.8109 48.1652Z" fill="#F94167"/>
<path d="M38.6344 4.47197C37.2403 3.56488 32.2969 0.866699 23.0017 0.866699C13.2447 0.866699 8.28925 3.84745 7.19305 4.60501C7.12065 4.64945 7.05288 4.70101 6.99074 4.75894C6.98419 4.76528 6.97564 4.76917 6.96655 4.76993C6.7915 4.92277 6.65104 5.11117 6.55454 5.32256C6.45804 5.53396 6.40771 5.7635 6.40691 5.99588C6.40991 6.21371 6.45588 6.42881 6.54216 6.62884C6.62844 6.82888 6.75335 7.00993 6.90973 7.1616C7.0661 7.31328 7.25087 7.43261 7.45345 7.51275C7.65602 7.5929 7.87242 7.63228 8.09024 7.62864C8.43937 7.6284 8.78007 7.52136 9.0666 7.32188C9.11388 7.28669 13.3789 4.15311 23.005 4.15311C32.6311 4.15311 36.9192 7.2757 36.9654 7.29879C37.2581 7.51587 37.6136 7.63166 37.978 7.62864C38.196 7.63198 38.4125 7.59224 38.6152 7.51169C38.8178 7.43114 39.0025 7.31138 39.1587 7.15926C39.3149 7.00715 39.4395 6.82568 39.5254 6.62528C39.6113 6.42489 39.6567 6.2095 39.6592 5.99148C39.6593 5.66491 39.5618 5.34577 39.3792 5.07502C39.1966 4.80427 38.9372 4.59427 38.6344 4.47197Z" fill="#F94167"/>
</svg>
