<svg width="74" height="68" viewBox="0 0 74 68" fill="none" xmlns="http://www.w3.org/2000/svg">
<path d="M24.6687 44.377C25.6482 44.377 26.528 43.8458 26.9928 42.9825L33.1849 31.2624H23.6395C22.1952 31.2624 21.0166 30.0837 21.0166 28.6395V23.3936C21.0166 21.9493 22.1952 20.7707 23.6395 20.7707H38.7296L50.4497 -1.45773C50.8979 -2.32097 51.7944 -2.8522 52.7738 -2.8522H72.4955C64.826 -10.9534 54.0023 -16 41.9999 -16C18.8087 -16 0 2.80867 0 25.9999C0 32.5904 1.52727 38.8323 4.2332 44.377H24.6687Z" fill="white"/>
<path d="M59.3336 7.62305C58.3542 7.62305 57.4743 8.15427 57.0095 9.01751L50.8174 20.7377H60.3629C61.8071 20.7377 62.9858 21.9163 62.9858 23.3606V28.6064C62.9858 30.0507 61.8071 31.2293 60.3629 31.2293H45.2728L33.5526 53.4578C33.1044 54.321 32.208 54.8522 31.2285 54.8522H11.5234C19.1764 62.9534 30.0001 68 42.0024 68C65.1937 68 84.0023 49.1914 84.0023 26.0001C84.0023 19.4096 82.4751 13.1677 79.7691 7.62305H59.3336Z" fill="white"/>
</svg>
