<svg width="20" height="20" viewBox="0 0 20 20" fill="none" xmlns="http://www.w3.org/2000/svg">
<path fill-rule="evenodd" clip-rule="evenodd" d="M7.1665 3.6665H3.6665V7.1665H7.1665V3.6665ZM3.6665 1.6665H1.6665V3.6665V7.1665V9.1665H3.6665H7.1665H9.1665V7.1665V3.6665V1.6665H7.1665H3.6665ZM7.1665 12.8332H3.6665V16.3332H7.1665V12.8332ZM3.6665 10.8332H1.6665V12.8332V16.3332V18.3332H3.6665H7.1665H9.1665V16.3332V12.8332V10.8332H7.1665H3.6665ZM12.8332 3.6665H16.3332V7.1665H12.8332V3.6665ZM10.8332 1.6665H12.8332H16.3332H18.3332V3.6665V7.1665V9.1665H16.3332H12.8332H10.8332V7.1665V3.6665V1.6665ZM16.3332 12.8332H12.8332V16.3332H16.3332V12.8332ZM12.8332 10.8332H10.8332V12.8332V16.3332V18.3332H12.8332H16.3332H18.3332V16.3332V12.8332V10.8332H16.3332H12.8332ZM6.6665 4.1665H4.1665V6.6665H6.6665V4.1665ZM13.3332 4.1665H15.8332V6.6665H13.3332V4.1665ZM6.6665 13.3332H4.1665V15.8332H6.6665V13.3332Z" fill="#8A95B2"/>
</svg>
