<svg width="24" height="24" viewBox="0 0 24 24" fill="none" xmlns="http://www.w3.org/2000/svg">
<g clip-path="url(#clip0_24_4505)">
<path d="M18.5598 4C20.2061 5.97656 21.1077 8.46761 21.1077 11.04C21.1077 13.6124 20.2061 16.1034 18.5598 18.08" stroke="#111111" stroke-width="2" stroke-linecap="round" stroke-linejoin="round"/>
<path d="M5.54788 18.08C3.90154 16.1034 3 13.6124 3 11.04C3 8.46756 3.90155 5.97652 5.54788 3.99996" stroke="#111111" stroke-width="2" stroke-linecap="round" stroke-linejoin="round"/>
<path d="M15.9999 7.53003C16.7211 8.54523 17.1086 9.7597 17.1086 11.005C17.1086 12.2504 16.7211 13.4648 15.9999 14.48" stroke="#111111" stroke-width="2" stroke-linecap="round" stroke-linejoin="round"/>
<path d="M8.10777 14.5499C7.38652 13.5347 6.99902 12.3203 6.99902 11.0749C6.99902 9.8296 7.38652 8.61513 8.10777 7.59993" stroke="#111111" stroke-width="2" stroke-linecap="round" stroke-linejoin="round"/>
<path d="M12 11L12 11.01" stroke="#111111" stroke-width="4" stroke-linecap="round" stroke-linejoin="round"/>
<line x1="12" y1="16" x2="12" y2="20" stroke="black" stroke-width="2" stroke-linecap="round"/>
</g>
<defs>
<clipPath id="clip0_24_4505">
<rect width="24" height="24" fill="white" transform="translate(24) rotate(90)"/>
</clipPath>
</defs>
</svg>
