<svg width="188" height="137" viewBox="0 0 188 137" fill="none" xmlns="http://www.w3.org/2000/svg">
<g clip-path="url(#clip0_243_17382)">
<path d="M17.3708 121.717C16.3883 122.479 15.1724 122.876 13.9306 122.84C12.6618 122.878 11.4104 122.537 10.3369 121.858C9.31746 121.145 8.55543 120.122 8.16435 118.94C7.64653 117.402 7.40325 115.785 7.44563 114.163C7.39837 112.529 7.66336 110.901 8.22641 109.366C8.63423 108.197 9.40619 107.191 10.4284 106.494C11.4507 105.798 12.6692 105.449 13.9045 105.499C15.0993 105.456 16.276 105.8 17.2597 106.48C18.1462 107.135 18.7865 108.334 19.1807 110.079L25.5546 107.501C25.1514 105.861 24.3205 104.359 23.1469 103.146C21.9837 101.995 20.567 101.133 19.0108 100.63C17.2805 100.065 15.4696 99.7863 13.6497 99.8056C10.8662 99.8056 8.44643 100.377 6.39039 101.52C4.34434 102.643 2.6893 104.364 1.64669 106.454C0.557685 108.594 0.0131836 111.172 0.0131836 114.189C0.0131836 117.205 0.557685 119.785 1.64669 121.927C2.69116 124.004 4.33932 125.715 6.37404 126.835C8.4279 127.978 10.8618 128.548 13.6758 128.546C15.5131 128.566 17.3404 128.273 19.0794 127.679C20.6875 127.118 22.1359 126.175 23.3004 124.93C24.5408 123.569 25.4252 121.921 25.8748 120.134L19.2918 118.272C18.952 119.823 18.3117 120.971 17.3708 121.717Z" fill="#F4F4F4"/>
<path d="M48.3321 122.333V114.595C48.3321 112.003 47.4804 110.017 45.7772 108.637C44.074 107.256 41.6782 106.565 38.5898 106.565C35.6059 106.565 33.2494 107.157 31.52 108.339C30.6825 108.896 29.9676 109.619 29.4193 110.463C28.871 111.307 28.5007 112.254 28.3314 113.247L34.4114 114.683C34.6662 113.557 35.1072 112.746 35.741 112.252C36.4434 111.738 37.2991 111.477 38.1684 111.513C38.5777 111.493 38.9864 111.561 39.368 111.71C39.7497 111.859 40.0956 112.088 40.3834 112.38C40.9554 113.023 41.2512 113.865 41.2067 114.725V115.331L33.8886 116.836C31.948 117.233 30.5127 117.923 29.5827 118.907C28.637 119.943 28.1369 121.31 28.191 122.712C28.191 124.599 28.8237 126.043 30.0891 127.044C31.3546 128.045 33.0849 128.546 35.2804 128.546C36.526 128.555 37.7632 128.34 38.9329 127.911C39.9944 127.543 40.9408 126.902 41.6772 126.053C41.8559 125.839 42.0145 125.609 42.1509 125.366C42.3736 126.118 42.8189 126.786 43.4283 127.28C44.441 128.095 45.8056 128.503 47.5218 128.503C48.5797 128.534 49.6314 128.332 50.6026 127.911L51.0273 123.811C50.6317 123.938 50.2173 123.996 49.8022 123.982C48.8221 123.982 48.3255 123.432 48.3255 122.346L48.3321 122.333ZM40.684 122.323C40.372 122.85 39.9086 123.271 39.3543 123.53C38.7912 123.786 38.1791 123.915 37.5607 123.91C36.9806 123.934 36.4079 123.771 35.9272 123.445C35.7156 123.282 35.5471 123.069 35.4366 122.826C35.3261 122.582 35.277 122.315 35.2935 122.048C35.2773 121.782 35.3221 121.516 35.4247 121.271C35.5272 121.025 35.6846 120.806 35.8848 120.631C36.4538 120.235 37.103 119.969 37.7861 119.853L41.2034 119.139V120.317C41.2249 121.02 41.0495 121.715 40.6971 122.323" fill="#F4F4F4"/>
<path d="M85.0534 107.386C83.8984 106.82 82.6247 106.538 81.3388 106.565C80.3628 106.563 79.3929 106.72 78.4671 107.03C77.5615 107.328 76.7233 107.801 76.0005 108.424C75.262 109.07 74.6647 109.862 74.2462 110.75C73.7535 109.453 72.8489 108.354 71.6717 107.622C70.4326 106.894 69.0145 106.528 67.5782 106.565C66.0833 106.533 64.6103 106.928 63.3311 107.704C62.0621 108.517 61.0688 109.697 60.4822 111.087L60.2699 106.987H53.8535V128.123H61.0409V116.963C61.0039 116 61.1778 115.041 61.5505 114.153C61.8337 113.496 62.3116 112.942 62.9195 112.566C63.4748 112.234 64.1091 112.059 64.7555 112.059C65.1373 112.044 65.5179 112.108 65.8741 112.247C66.2303 112.385 66.5545 112.595 66.8268 112.863C67.3593 113.397 67.6272 114.342 67.6272 115.694V128.127H74.8146V116.839C74.786 115.928 74.945 115.022 75.2818 114.175C75.5475 113.521 76.0128 112.966 76.6115 112.592C77.1882 112.238 77.8528 112.054 78.5292 112.062C78.9143 112.044 79.2991 112.106 79.659 112.245C80.0189 112.383 80.3461 112.595 80.6201 112.867C81.1395 113.4 81.4009 114.346 81.4009 115.697V128.13H88.4903L88.5752 114.061C88.6057 112.399 88.2965 111.012 87.6474 109.899C87.049 108.835 86.1546 107.967 85.073 107.403" fill="#F4F4F4"/>
<path d="M111.728 107.854C110.368 106.973 108.774 106.524 107.154 106.565C105.869 106.54 104.601 106.861 103.482 107.494C102.417 108.112 101.519 108.983 100.869 110.03C100.626 110.418 100.414 110.825 100.235 111.247L100.026 106.994H93.5669V137.007H100.754V124.472C101.171 125.355 101.743 126.155 102.443 126.834C103.626 127.977 105.174 128.548 107.086 128.546C108.707 128.581 110.302 128.125 111.66 127.237C113.026 126.293 114.09 124.973 114.721 123.435C115.496 121.546 115.869 119.515 115.819 117.474C115.819 115.164 115.459 113.2 114.74 111.584C114.116 110.077 113.067 108.784 111.722 107.864L111.728 107.854ZM107.543 121.897C107.205 122.345 106.764 122.704 106.257 122.943C105.75 123.182 105.192 123.295 104.632 123.271C103.873 123.29 103.129 123.051 102.522 122.594C101.891 122.089 101.428 121.404 101.192 120.631C100.876 119.642 100.726 118.607 100.748 117.568C100.719 116.505 100.884 115.445 101.235 114.441C101.496 113.679 101.972 113.011 102.607 112.517C103.206 112.077 103.932 111.847 104.675 111.862C105.232 111.837 105.786 111.949 106.29 112.188C106.794 112.427 107.232 112.786 107.566 113.233C108.254 114.154 108.598 115.599 108.598 117.568C108.598 119.538 108.247 120.982 107.543 121.9" fill="#F4F4F4"/>
<path d="M144.147 98.4671C143.472 97.9174 142.417 97.6426 140.981 97.6426C139.546 97.6426 138.483 97.9174 137.793 98.4671C137.139 99.0168 136.812 99.9002 136.812 101.111C136.812 102.321 137.139 103.159 137.793 103.728C138.446 104.298 139.518 104.55 140.981 104.55C142.445 104.55 143.471 104.275 144.147 103.728C144.823 103.182 145.16 102.312 145.16 101.111C145.16 99.91 144.833 99.0168 144.147 98.4671Z" fill="#F4F4F4"/>
<path d="M144.565 106.987H137.391V128.124H144.565V106.987Z" fill="#F4F4F4"/>
<path d="M129.014 103.139C129.732 102.663 130.581 102.426 131.442 102.462C131.939 102.452 132.436 102.509 132.918 102.632C133.29 102.736 133.646 102.892 133.974 103.097L134.692 98.6173C134.092 98.2291 133.429 97.95 132.732 97.7928C131.74 97.5387 130.718 97.4177 129.694 97.4329C128.61 97.4274 127.531 97.5694 126.486 97.855C125.504 98.1209 124.586 98.5803 123.784 99.2063C122.99 99.8361 122.36 100.649 121.948 101.575C121.486 102.671 121.263 103.854 121.294 105.043V106.987H117.919V112.101H121.294V128.133H128.482V112.101H134.473V106.987H128.057V105.508C128.057 104.378 128.374 103.588 129.008 103.139" fill="#F4F4F4"/>
<path d="M162.72 106.565C161.087 106.565 159.743 107.002 158.689 107.874C157.564 108.851 156.738 110.126 156.304 111.552L156.006 106.971H149.675V128.107H156.862V117.471C156.824 116.519 157.05 115.576 157.516 114.745C157.929 114.042 158.538 113.474 159.267 113.109C160.001 112.743 160.811 112.554 161.632 112.559C162.161 112.554 162.69 112.589 163.213 112.664C163.581 112.718 163.942 112.811 164.291 112.939L165.007 107.023C164.725 106.865 164.42 106.755 164.102 106.696C163.65 106.607 163.19 106.566 162.73 106.572" fill="#F4F4F4"/>
<path d="M186.736 111.405C185.899 109.903 184.653 108.671 183.142 107.855C181.593 106.995 179.722 106.565 177.529 106.565C175.526 106.522 173.542 106.964 171.747 107.855C170.105 108.693 168.756 110.012 167.882 111.637C166.928 113.461 166.456 115.498 166.509 117.556C166.509 119.866 166.96 121.845 167.862 123.494C168.745 125.127 170.116 126.443 171.782 127.257C173.667 128.153 175.734 128.595 177.82 128.546C179.974 128.59 182.103 128.081 184.004 127.067C185.79 126.079 186.979 124.725 187.572 123.007L181.829 121.063C181.534 121.801 181.018 122.428 180.352 122.859C179.597 123.297 178.734 123.51 177.862 123.475C176.995 123.503 176.135 123.298 175.373 122.882C174.666 122.451 174.124 121.796 173.831 121.021C173.624 120.495 173.483 119.945 173.413 119.385H187.823C187.879 119.022 187.921 118.59 187.951 118.096C187.98 117.602 187.993 117.114 187.993 116.597C188.028 114.79 187.591 113.004 186.726 111.418L186.736 111.405ZM175.203 112.242C175.895 111.798 176.705 111.577 177.526 111.607C178.846 111.607 179.809 112.094 180.417 113.067C180.843 113.812 181.099 114.642 181.169 115.498H173.468C173.539 115.066 173.648 114.641 173.795 114.228C174.041 113.431 174.537 112.735 175.21 112.242" fill="#F4F4F4"/>
<path d="M59.1297 68.765C58.4334 71.2717 58.4146 73.9187 59.0753 76.435C59.7361 78.9513 61.0525 81.2466 62.89 83.086L73.2595 72.7011L62.89 62.3129C61.1008 64.102 59.8052 66.325 59.1297 68.765ZM114.741 72.6913L125.113 83.0762C126.476 81.7125 127.557 80.0934 128.294 78.3112C129.032 76.529 129.411 74.6188 129.411 72.6896C129.411 70.7605 129.032 68.8503 128.294 67.0681C127.557 65.2859 126.476 63.6667 125.113 62.3031L114.741 72.6913ZM94.0017 62.3129L83.6322 51.928L62.89 31.1581C60.1401 33.9125 58.5952 37.648 58.5952 41.543C58.5952 45.438 60.1401 49.1736 62.89 51.928L83.6322 72.7011C86.3829 75.4543 90.1127 77.0009 94.0017 77.0009C97.8907 77.0009 101.62 75.4543 104.371 72.7011L125.113 51.928C127.863 49.1731 129.407 45.4378 129.407 41.543C129.407 37.6482 127.863 33.9129 125.113 31.1581L94.0017 62.3129ZM94.0017 31.1581C92.6393 32.5215 91.5585 34.1404 90.8212 35.9223C90.0838 37.7042 89.7042 39.6141 89.7042 41.543C89.7042 43.4719 90.0838 45.3818 90.8212 47.1637C91.5585 48.9456 92.6393 50.5646 94.0017 51.928L109.556 36.3505C110.918 34.9869 111.999 33.3677 112.737 31.5855C113.474 29.8033 113.854 27.8931 113.854 25.964C113.854 24.0348 113.474 22.1246 112.737 20.3424C111.999 18.5603 110.918 16.9411 109.556 15.5774L94.0017 31.1581ZM78.4474 15.5774C77.0853 16.9413 76.0049 18.5605 75.2677 20.3427C74.5305 22.1248 74.151 24.035 74.151 25.964C74.151 27.893 74.5305 29.8031 75.2677 31.5853C76.0049 33.3674 77.0853 34.9866 78.4474 36.3505L94.0017 20.7699C95.3641 19.4065 96.4449 17.7876 97.1823 16.0057C97.9196 14.2238 98.2992 12.3138 98.2992 10.3849C98.2992 8.45606 97.9196 6.5461 97.1823 4.7642C96.4449 2.9823 95.3641 1.36339 94.0017 0L78.4474 15.5774Z" fill="url(#paint0_linear_243_17382)"/>
</g>
<defs>
<linearGradient id="paint0_linear_243_17382" x1="94.0017" y1="0" x2="94.0017" y2="83.086" gradientUnits="userSpaceOnUse">
<stop stop-color="#F5595C"/>
<stop offset="1" stop-color="#F94167"/>
</linearGradient>
<clipPath id="clip0_243_17382">
<rect width="188" height="137" fill="white"/>
</clipPath>
</defs>
</svg>
