<svg width="24" height="24" viewBox="0 0 24 24" fill="none" xmlns="http://www.w3.org/2000/svg">
<path fill-rule="evenodd" clip-rule="evenodd" d="M18.2494 4.34681H19.2002C20.8242 4.34681 22.0004 5.75201 22.0004 7.3049V19.0534C22.0004 20.6063 20.8242 22.0115 19.2002 22.0115H4.79873C3.17473 22.0115 1.99854 20.6063 1.99854 19.0534V7.3049C1.99854 5.79331 3.113 4.42166 4.67012 4.34977L14.3134 2.1021C16.0616 1.69464 17.7459 2.73843 18.2494 4.34681ZM15.9489 4.34681C15.6404 4.07577 15.209 3.94696 14.7674 4.04989L13.4935 4.34681H15.9489ZM19.2002 6.34681C19.5647 6.34681 20.0004 6.69495 20.0004 7.3049V19.0534C20.0004 19.6634 19.5647 20.0115 19.2002 20.0115H4.79873C4.43428 20.0115 3.99854 19.6634 3.99854 19.0534L3.99854 7.3049C3.99854 6.69495 4.43428 6.34681 4.79873 6.34681L19.2002 6.34681ZM18.4001 13.1694C18.4001 12.6171 17.9523 12.1694 17.4001 12.1694C16.8478 12.1694 16.4001 12.6171 16.4001 13.1694V13.1792C16.4001 13.7314 16.8478 14.1792 17.4001 14.1792C17.9523 14.1792 18.4001 13.7314 18.4001 13.1792V13.1694Z" fill="#F94167"/>
</svg>
